# xmcd
#
# Track frame offsets: 
#        150
#        22005
#        34538
#        55513
#        81958
#        110603
#        135383
#        154383
#        166545
#        190473
#
# Disc length: 2734 seconds
#
# Revision: 5
# Processed by: cddbd v1.5.2PL0 Copyright (c) Steve Scherf et al.
# Submitted via: ExactAudioCopy v0.99pb4
#
DISCID=770aac0a
DTITLE=Michel Petrucciani - Marvellous
DYEAR=1994
DGENRE=Jazz
TTITLE0=Manhattan
TTITLE1=Charlie Brown
TTITLE2=Even Mice Dance
TTITLE3=Why
TTITLE4=Hidden Joy
TTITLE5=Shooting Stars
TTITLE6=You Are My Waltz
TTITLE7=Dumb Breaks
TTITLE8=92's Last
TTITLE9=Besame Mucho
EXTD=YEAR: 1994
EXTT0=
EXTT1=
EXTT2=
EXTT3=
EXTT4=
EXTT5=
EXTT6=
EXTT7=
EXTT8=
EXTT9=
PLAYORDER=
